<svg width="46" height="47" viewBox="0 0 46 47" fill="none" xmlns="http://www.w3.org/2000/svg">
<path fill-rule="evenodd" clip-rule="evenodd" d="M0 0V23.5L7.17282 17.6991L11.3335 11.7497L0 0Z" fill="#EB7D2D"/>
<path fill-rule="evenodd" clip-rule="evenodd" d="M11.3335 11.75L12.4808 21.9388L11.3335 35.2506L0 23.5003L11.3335 11.75Z" fill="#EB7D2D"/>
<path fill-rule="evenodd" clip-rule="evenodd" d="M11.3359 11.75V35.2506L22.6688 23.5003L11.3359 11.75Z" fill="#EB7D2D"/>
<path fill-rule="evenodd" clip-rule="evenodd" d="M45.3335 0V23.5L38.9134 18.7036L34 11.7497L45.3335 0Z" fill="#EB7D2D"/>
<path fill-rule="evenodd" clip-rule="evenodd" d="M33.9988 11.75L33.2812 21.1949L33.9988 35.2506L45.3322 23.5003L33.9988 11.75Z" fill="#EB7D2D"/>
<path fill-rule="evenodd" clip-rule="evenodd" d="M33.9975 11.75V22.5336V35.2506L22.6641 23.5003L33.9975 11.75Z" fill="#EB7D2D"/>
<path fill-rule="evenodd" clip-rule="evenodd" d="M34.0023 35.25H11.3359L22.6688 46.9997L34.0023 35.25Z" fill="#EB7D2D"/>
</svg>
