<svg width="19" height="13" viewBox="0 0 19 13" fill="none" xmlns="http://www.w3.org/2000/svg">
<path d="M0 1.37293C0.0346602 1.2728 0.073653 1.17412 0.103499 1.07302C0.141529 0.94401 0.175708 0.90598 0.292687 1.02585C0.852064 1.5987 1.42059 2.16193 1.98526 2.72853C3.19596 3.9426 4.40474 5.1586 5.61929 6.36882C5.7252 6.47425 5.72616 6.52431 5.61977 6.6307C3.84873 8.39933 2.08298 10.1728 0.315793 11.9448C0.164155 12.0969 0.167043 12.0955 0.0909832 11.8933C0.0577671 11.8052 0.0587299 11.7055 0 11.6271C0 8.2087 0 4.79082 0 1.37293Z" fill="white" fill-opacity="0.6"/>
<path d="M18.4855 11.6266C18.4503 11.7262 18.4113 11.8249 18.3815 11.926C18.3435 12.057 18.3088 12.0916 18.1923 11.9722C17.6291 11.3955 17.0567 10.8284 16.4877 10.2575C15.2818 9.04777 14.0774 7.83611 12.8676 6.6307C12.7612 6.52479 12.7607 6.47473 12.8671 6.36834C14.6372 4.60019 16.403 2.82722 18.1692 1.05521C18.3208 0.903092 18.3223 0.902611 18.3921 1.10624C18.4263 1.20589 18.4542 1.30794 18.4855 1.40855C18.4855 4.81489 18.4855 8.22074 18.4855 11.6266Z" fill="white" fill-opacity="0.6"/>
<path d="M0.970487 0.150676C1.19 0.040437 1.42396 0.000481392 1.66706 0.000962785C2.33475 0.00144418 3.00244 0.000962785 3.67062 0.000962785C8.02625 0.000962785 12.3819 0.00144418 16.7375 0C17.0047 0 17.2632 0.0293649 17.5092 0.144899C17.5116 0.213257 17.4553 0.237326 17.4206 0.271987C14.8601 2.84214 12.2991 5.41133 9.7376 7.98004C9.42759 8.29054 9.06125 8.29295 8.75605 7.9863C6.19408 5.41711 3.63307 2.84792 1.07206 0.278245C1.03547 0.241659 0.985891 0.212775 0.970487 0.150676Z" fill="white" fill-opacity="0.6"/>
<path d="M17.5261 12.8455C17.2931 12.9576 17.0601 12.999 16.817 12.999C16.1974 12.9981 15.5774 12.9986 14.9578 12.999C10.5536 12.999 6.14931 12.9986 1.74505 13C1.47739 13 1.21937 12.9687 0.974338 12.8537C0.980115 12.7858 1.03355 12.7607 1.06917 12.7251C2.83973 10.9473 4.61222 9.17149 6.37941 7.39082C6.48917 7.28058 6.5402 7.29117 6.64129 7.39563C7.0808 7.8491 7.52994 8.29391 7.97619 8.74112C8.72283 9.48921 9.76215 9.49017 10.5093 8.74305C10.9647 8.28765 11.4196 7.83225 11.8711 7.37349C11.9458 7.29791 11.9881 7.27143 12.0796 7.36434C13.8776 9.17438 15.6794 10.9801 17.4803 12.7867C17.4924 12.7988 17.5015 12.8142 17.5261 12.8455Z" fill="white" fill-opacity="0.6"/>
</svg>
