<svg width="14" height="17" viewBox="0 0 14 17" fill="none" xmlns="http://www.w3.org/2000/svg">
<path d="M12.8112 6.37516H11.3945V4.60433C11.3945 3.57109 10.9841 2.58017 10.2535 1.84956C9.52286 1.11895 8.53194 0.708496 7.4987 0.708496H6.79036C5.75713 0.708496 4.7662 1.11895 4.03559 1.84956C3.30498 2.58017 2.89453 3.57109 2.89453 4.60433V6.37516H1.47786C1.29 6.37516 1.10984 6.44979 0.976997 6.58263C0.844159 6.71547 0.769531 6.89563 0.769531 7.0835V15.5835C0.769531 15.7714 0.844159 15.9515 0.976997 16.0844C1.10984 16.2172 1.29 16.2918 1.47786 16.2918H12.8112C12.9991 16.2918 13.1792 16.2172 13.3121 16.0844C13.4449 15.9515 13.5195 15.7714 13.5195 15.5835V7.0835C13.5195 6.89563 13.4449 6.71547 13.3121 6.58263C13.1792 6.44979 12.9991 6.37516 12.8112 6.37516ZM4.3112 4.60433C4.3112 3.94681 4.5724 3.31623 5.03733 2.85129C5.50226 2.38636 6.13285 2.12516 6.79036 2.12516H7.4987C8.15621 2.12516 8.7868 2.38636 9.25173 2.85129C9.71667 3.31623 9.97786 3.94681 9.97786 4.60433V6.37516H4.3112V4.60433ZM3.95703 12.396C3.74689 12.396 3.54147 12.3337 3.36674 12.2169C3.19201 12.1002 3.05583 11.9342 2.97541 11.7401C2.89499 11.5459 2.87395 11.3323 2.91495 11.1262C2.95594 10.9201 3.05714 10.7308 3.20573 10.5822C3.35432 10.4336 3.54364 10.3324 3.74975 10.2914C3.95585 10.2504 4.16949 10.2715 4.36363 10.3519C4.55778 10.4323 4.72372 10.5685 4.84047 10.7432C4.95722 10.9179 5.01953 11.1234 5.01953 11.3335C5.02448 11.4744 5.00038 11.6147 4.94873 11.7459C4.89709 11.877 4.819 11.9961 4.71934 12.0958C4.61967 12.1955 4.50056 12.2736 4.36941 12.3252C4.23827 12.3768 4.09789 12.4009 3.95703 12.396ZM7.14453 12.396C6.93439 12.396 6.72897 12.3337 6.55424 12.2169C6.37951 12.1002 6.24333 11.9342 6.16291 11.7401C6.08249 11.5459 6.06145 11.3323 6.10245 11.1262C6.14344 10.9201 6.24464 10.7308 6.39323 10.5822C6.54182 10.4336 6.73114 10.3324 6.93725 10.2914C7.14335 10.2504 7.35699 10.2715 7.55113 10.3519C7.74528 10.4323 7.91122 10.5685 8.02797 10.7432C8.14472 10.9179 8.20703 11.1234 8.20703 11.3335C8.21198 11.4744 8.18788 11.6147 8.13623 11.7459C8.08459 11.877 8.0065 11.9961 7.90684 12.0958C7.80717 12.1955 7.68806 12.2736 7.55691 12.3252C7.42577 12.3768 7.28539 12.4009 7.14453 12.396ZM10.332 12.396C10.1219 12.396 9.91646 12.3337 9.74174 12.2169C9.56701 12.1002 9.43083 11.9342 9.35041 11.7401C9.26999 11.5459 9.24895 11.3323 9.28995 11.1262C9.33094 10.9201 9.43214 10.7308 9.58073 10.5822C9.72932 10.4336 9.91864 10.3324 10.1247 10.2914C10.3309 10.2504 10.5445 10.2715 10.7386 10.3519C10.9328 10.4323 11.0987 10.5685 11.2155 10.7432C11.3322 10.9179 11.3945 11.1234 11.3945 11.3335C11.3995 11.4744 11.3754 11.6147 11.3237 11.7459C11.2721 11.877 11.194 11.9961 11.0943 12.0958C10.9947 12.1955 10.8756 12.2736 10.7444 12.3252C10.6133 12.3768 10.4729 12.4009 10.332 12.396Z" fill="white" fill-opacity="0.6"/>
</svg>
