<svg width="18" height="15" viewBox="0 0 18 15" fill="none" xmlns="http://www.w3.org/2000/svg">
<path d="M0 13.1927C0 11.2009 0 9.20917 0 7.21741C0.01734 7.22116 0.03468 7.22304 0.0515513 7.22866C2.79221 8.14112 5.53474 9.04842 8.27211 9.97213C8.76794 10.1394 9.2305 10.1404 9.72633 9.97353C12.4801 9.04608 15.2395 8.13456 17.9966 7.21741C17.9966 9.20917 17.9966 11.2009 17.9966 13.1927C17.9366 13.3872 17.8996 13.5934 17.8119 13.7747C17.4168 14.5921 16.757 14.9946 15.8478 14.9946C11.2813 14.9937 6.71526 14.9942 2.14875 14.9942C2.09017 14.9942 2.03159 14.9937 1.97301 14.9913C1.09336 14.959 0.310245 14.3418 0.0777956 13.4968C0.0501454 13.3961 0.0257757 13.2944 0 13.1927Z" fill="white" fill-opacity="0.6"/>
<path d="M0 6.02236C0 5.36625 0 4.71014 0 4.05404C0.00890432 4.03248 0.0224951 4.01186 0.0257757 3.98983C0.148093 3.08065 0.991191 2.21647 2.20077 2.24646C3.39442 2.27598 4.589 2.25302 5.78312 2.25302C5.85061 2.25302 5.91856 2.25302 6.00573 2.25302C6.00573 1.9573 5.99729 1.68924 6.00713 1.42117C6.03572 0.659616 6.65668 0.0236599 7.41776 0.011475C8.47129 -0.0053963 9.52528 -0.00352171 10.5783 0.0161615C10.8019 0.0203794 11.0437 0.0991123 11.2415 0.208776C11.7143 0.47075 11.9679 0.893002 11.9899 1.43898C12.0007 1.70517 11.9918 1.9723 11.9918 2.25349C12.093 2.25349 12.1619 2.25349 12.2313 2.25349C13.4605 2.25349 14.6898 2.24974 15.919 2.25489C16.8554 2.25911 17.6287 2.82758 17.901 3.70067C17.9375 3.81737 17.9647 3.9364 17.9966 4.0545C17.9966 4.71061 17.9966 5.36672 17.9966 6.02283C17.9806 6.03079 17.9656 6.04064 17.9492 6.04626C15.0427 7.01449 12.1366 7.98459 9.22722 8.94438C9.08381 8.99171 8.89729 8.98609 8.75294 8.93923C7.12486 8.40731 5.50052 7.86274 3.87525 7.32051C2.58272 6.88842 1.29159 6.45492 0 6.02236ZM7.50446 2.23943C8.51159 2.23943 9.49763 2.23943 10.4888 2.23943C10.4888 1.98964 10.4888 1.75297 10.4888 1.51349C9.48685 1.51349 8.49659 1.51349 7.50446 1.51349C7.50446 1.76188 7.50446 1.99433 7.50446 2.23943Z" fill="white" fill-opacity="0.6"/>
</svg>
