<svg width="12" height="10" viewBox="0 0 12 10" fill="none" xmlns="http://www.w3.org/2000/svg">
<path d="M3.84322 2.41557L2.8905 1.48535L0.19736 4.17099C0.0709196 4.29879 0 4.47132 0 4.6511C0 4.83088 0.0709196 5.00341 0.19736 5.13121L2.92801 7.86186L3.88073 6.91664L1.6302 4.6661L3.84322 2.41557ZM11.7951 4.14848L9.10197 1.48535L8.14924 2.41557L10.3623 4.6661L8.11173 6.91664L9.06446 7.87686L11.7951 5.14622C11.86 5.08266 11.9115 5.00679 11.9467 4.92306C11.9819 4.83933 12 4.74942 12 4.6586C12 4.56778 11.9819 4.47787 11.9467 4.39414C11.9115 4.31041 11.86 4.23455 11.7951 4.17099V4.14848ZM4.20331 9.00213L5.50862 9.33221L7.75915 0.330078L6.43884 0L4.20331 9.00213Z" fill="white"/>
</svg>
