<svg width="12" height="12" viewBox="0 0 12 12" fill="none" xmlns="http://www.w3.org/2000/svg">
<path d="M6 3.1875C6.31066 3.1875 6.5625 2.93566 6.5625 2.625C6.5625 2.31434 6.31066 2.0625 6 2.0625C5.68934 2.0625 5.4375 2.31434 5.4375 2.625C5.4375 2.93566 5.68934 3.1875 6 3.1875Z" fill="white"/>
<path d="M0.749998 4.6875H11.25C11.5864 4.6875 11.8815 4.46362 11.9722 4.13962C12.063 3.81562 11.9269 3.471 11.6394 3.29644L6.38944 0.108937C6.26962 0.0361875 6.13481 0 6 0C5.86518 0 5.73037 0.0361875 5.61075 0.108937L0.360748 3.29644C0.0733101 3.471 -0.0630024 3.81581 0.0279351 4.13962C0.118498 4.46362 0.413623 4.6875 0.749998 4.6875ZM6 1.6875C6.51787 1.6875 6.9375 2.10713 6.9375 2.625C6.9375 3.14287 6.51787 3.5625 6 3.5625C5.48212 3.5625 5.0625 3.14287 5.0625 2.625C5.0625 2.10713 5.48212 1.6875 6 1.6875Z" fill="white"/>
<path d="M7.875 5.0625H6.375V9.75H7.875V5.0625Z" fill="white"/>
<path d="M10.125 5.0625H8.625V9.75H10.125V5.0625Z" fill="white"/>
<path d="M5.625 5.0625H4.125V9.75H5.625V5.0625Z" fill="white"/>
<path d="M3.375 5.0625H1.875V9.75H3.375V5.0625Z" fill="white"/>
<path d="M0.75 10.875H11.25C11.25 10.4608 10.9142 10.125 10.5 10.125H1.5C1.08581 10.125 0.75 10.4608 0.75 10.875Z" fill="white"/>
<path d="M11.8959 11.25H0.104062C0.0395625 11.3608 0 11.4877 0 11.625V12H12V11.625C12 11.4877 11.9604 11.3608 11.8959 11.25Z" fill="white"/>
</svg>
