<svg width="12" height="11" viewBox="0 0 12 11" fill="none" xmlns="http://www.w3.org/2000/svg">
<path fill-rule="evenodd" clip-rule="evenodd" d="M0 3.01428C0 2.73026 0.230254 2.5 0.51428 2.5H9.85707V3.52856H0.51428C0.230254 3.52856 0 3.2983 0 3.01428Z" fill="white"/>
<path d="M8 3.27777V5.22221C8 5.33458 8.09744 5.43584 8.24693 5.47884C8.39637 5.52184 8.56843 5.4981 8.68283 5.41865L11.8828 3.19644C11.9579 3.14433 12 3.07366 12 2.99999C12 2.92633 11.9579 2.85566 11.8828 2.80359L8.68283 0.581366C8.56843 0.501922 8.39637 0.478159 8.24693 0.521152C8.09744 0.564148 8 0.665437 8 0.777784V2.72222V3.27777Z" fill="white"/>
<path fill-rule="evenodd" clip-rule="evenodd" d="M12 8.01428C12 7.73026 11.7697 7.5 11.4857 7.5H2.14293V8.52856H11.4857C11.7697 8.52856 12 8.2983 12 8.01428Z" fill="white"/>
<path d="M4 8.27777V10.2222C4 10.3346 3.90256 10.4358 3.75307 10.4788C3.60363 10.5218 3.43157 10.4981 3.31717 10.4187L0.117173 8.19644C0.0421331 8.14433 0 8.07366 0 7.99999C0 7.92633 0.0421331 7.85566 0.117173 7.80359L3.31717 5.58137C3.43157 5.50192 3.60363 5.47816 3.75307 5.52115C3.90256 5.56415 4 5.66544 4 5.77778V7.72222V8.27777Z" fill="white"/>
</svg>
