<svg width="12" height="11" viewBox="0 0 12 11" fill="none" xmlns="http://www.w3.org/2000/svg">
<path d="M11.5636 0.436406C11.295 0.167367 10.9204 -0.000234129 10.51 2.45493e-07H9.82917H9.4838H2.5162H2.17106H1.48999C1.07979 -0.000234129 0.704977 0.167391 0.43643 0.436406C0.167391 0.704953 -0.00023413 1.07977 2.45459e-07 1.48997V2.27037C2.45459e-07 3.23081 0.584742 4.09446 1.47642 4.45111L1.48976 4.45638L3.03816 4.93076C3.11517 5.03055 3.19636 5.12827 3.28695 5.22162C3.86203 5.81301 4.42099 6.21014 4.80616 6.5325C4.99884 6.693 5.14556 6.8344 5.23155 6.95468C5.27501 7.0147 5.30374 7.06826 5.32193 7.11771C5.33988 7.16737 5.34837 7.21289 5.34837 7.266C5.34837 8.0156 5.34837 7.58241 5.34837 8.33201C5.34837 8.48698 5.32652 8.6201 5.2902 8.73002C5.23479 8.89535 5.15065 9.00731 5.04715 9.08367C4.94273 9.15909 4.81261 9.20416 4.63877 9.20484C4.01888 9.20484 4.0129 9.20484 4.01243 9.20484H3.66706V10.2752H8.33294V9.20484H7.98757C7.98757 9.20484 7.98136 9.20484 7.36144 9.20484C7.24554 9.20484 7.14874 9.18391 7.06666 9.14852C6.94409 9.09448 6.84912 9.00987 6.7744 8.87834C6.70083 8.74704 6.65163 8.56493 6.65163 8.33201C6.65163 7.58241 6.65163 8.0156 6.65163 7.266C6.65184 7.21289 6.66038 7.16737 6.67807 7.11771C6.7091 7.03193 6.77602 6.92984 6.89009 6.81051C7.05954 6.63115 7.3272 6.42284 7.64634 6.16875C7.96547 5.91375 8.33545 5.61 8.71301 5.22164C8.80362 5.12829 8.88499 5.03058 8.96182 4.93078L10.5104 4.45641L10.5236 4.45113C11.4155 4.09448 12 3.23081 12 2.27037V1.48997C12.0002 1.07977 11.8328 0.704953 11.5636 0.436406ZM1.72383 3.80613C1.09931 3.55205 0.690492 2.94523 0.690492 2.27037V1.48997C0.690727 1.2683 0.779485 1.07034 0.924563 0.924774C1.07058 0.779438 1.26809 0.690703 1.48999 0.690469H2.16991C2.16921 0.851203 2.16827 1.01215 2.16827 1.1722C2.16874 1.91259 2.18552 2.64288 2.33131 3.33361C2.38373 3.58102 2.45386 3.82315 2.54585 4.0579L1.72383 3.80613ZM4.25937 4.4134C4.25937 4.4134 3.25868 3.47156 3.25868 2.52975C3.25868 1.58794 3.25868 0.704953 3.25868 0.704953H4.25937V4.4134ZM11.3097 2.27037C11.3097 2.94523 10.9007 3.55205 10.2761 3.80613L9.45366 4.0579C9.61003 3.65965 9.702 3.23955 9.75558 2.80866C9.82156 2.27705 9.83144 1.72748 9.83168 1.17218C9.83168 1.01215 9.83074 0.85118 9.83006 0.690445H10.51C10.7319 0.69068 10.9296 0.779414 11.0754 0.92475C11.2205 1.0703 11.3095 1.26804 11.3097 1.48995V2.27037Z" fill="white"/>
</svg>
