<svg width="12" height="11" viewBox="0 0 12 11" fill="none" xmlns="http://www.w3.org/2000/svg">
<path d="M0.455538 0H0V11H12V10.5586L0.463385 10.5357L0.455538 0ZM3.69231 0.458333C3.69231 0.204875 3.48554 0 3.23077 0H1.84615C1.59092 0 1.38462 0.204875 1.38462 0.458333V9.625H3.69231V0.458333ZM6.46154 3.20833C6.46154 2.95487 6.25477 2.75 6 2.75H4.61538C4.36015 2.75 4.15385 2.95487 4.15385 3.20833V9.625H6.46154V3.20833ZM9.23077 5.95833C9.23077 5.70487 9.024 5.5 8.76923 5.5H7.38462C7.12938 5.5 6.92308 5.70487 6.92308 5.95833V9.625H9.23077V5.95833ZM11.5385 8.25H10.1538C9.89862 8.25 9.69231 8.45487 9.69231 8.70833V9.625H12V8.70833C12 8.45487 11.7932 8.25 11.5385 8.25Z" fill="white"/>
</svg>
